<?xml version="1.0" encoding="UTF-8" standalone="no"?>
<!DOCTYPE svg PUBLIC "-//W3C//DTD SVG 1.1//EN" "http://www.w3.org/Graphics/SVG/1.1/DTD/svg11.dtd">
<svg width="100%" height="100%" viewBox="0 0 90 58" version="1.1" xmlns="http://www.w3.org/2000/svg" xmlns:xlink="http://www.w3.org/1999/xlink" xml:space="preserve" xmlns:serif="http://www.serif.com/" style="fill-rule:evenodd;clip-rule:evenodd;stroke-linejoin:round;stroke-miterlimit:2;">
    <g transform="matrix(1,0,0,1,88.0645,42.5722)">
        <g id="All-glyphs" serif:id="All glyphs">
            <path d="M0,-27.144C-2.773,-25.697 -36.835,-7.885 -38.533,-7C-40.232,-6.113 -41.422,-5.998 -43.064,-5.998C-44.707,-5.998 -45.896,-6.113 -47.596,-7C-49.294,-7.885 -83.354,-25.697 -86.129,-27.144C-88.081,-28.162 -88.064,-26.968 -88.064,-26.046L-88.064,10.633C-88.064,12.729 -85.272,15.428 -83.105,15.428L-3.023,15.428C-0.856,15.428 1.936,12.729 1.936,10.633L1.936,-26.046C1.936,-26.968 1.954,-28.162 0,-27.144M-85.095,-37.144C-82.654,-35.832 -48.854,-17.676 -47.596,-17C-46.337,-16.324 -44.707,-15.998 -43.064,-15.998C-41.422,-15.998 -39.792,-16.324 -38.533,-17C-37.275,-17.676 -3.476,-35.832 -1.034,-37.144C1.408,-38.455 3.72,-42.572 -0.768,-42.572L-85.362,-42.572C-89.846,-42.572 -87.537,-38.455 -85.095,-37.144" style="fill:rgb(240,224,225);fill-rule:nonzero;"/>
        </g>
    </g>
</svg>
